<svg width="998" height="361" viewBox="0 0 998 361" fill="none" xmlns="http://www.w3.org/2000/svg">
<path d="M32.1163 160.014C32.1163 168.557 31.378 175.413 29.9014 180.581C28.5302 185.854 26.2098 190.126 22.9402 193.396C19.6706 196.665 14.9771 199.619 8.85967 202.255L8.70146 202.414C8.49051 202.414 8.22683 202.15 7.91042 201.622C7.69947 201.095 7.69947 200.779 7.91042 200.673C13.0786 197.72 16.6646 193.29 18.6686 187.384C20.778 181.583 21.8328 173.883 21.8328 164.285V84.5483C21.8328 81.3841 21.4636 79.0638 20.7253 77.5872C20.0925 76.1105 18.8268 75.1085 16.9283 74.5812C15.0298 73.9484 12.0766 73.6319 8.06863 73.6319C7.85768 73.6319 7.75221 73.3155 7.75221 72.6827C7.75221 72.0499 7.85768 71.7334 8.06863 71.7334L16.2955 71.8916C20.7253 72.1026 24.2059 72.2081 26.7372 72.2081C29.4795 72.2081 32.8546 72.1026 36.8625 71.8916L43.8237 71.7334C44.0347 71.7334 44.1401 72.0499 44.1401 72.6827C44.1401 73.3155 44.0347 73.6319 43.8237 73.6319C40.3431 73.6319 37.8118 73.9484 36.2297 74.5812C34.6476 75.214 33.5402 76.3215 32.9073 77.9036C32.38 79.3802 32.1163 81.7006 32.1163 84.8647V160.014ZM86.7476 114.924H119.339L120.446 118.247H84.3745L86.7476 114.924ZM161.264 168.715C161.686 168.715 161.897 169.032 161.897 169.664C161.897 170.297 161.686 170.614 161.264 170.614C159.26 170.614 156.148 170.508 151.929 170.297C147.711 170.086 144.652 169.981 142.753 169.981C140.433 169.981 137.48 170.086 133.894 170.297C130.519 170.508 127.935 170.614 126.141 170.614C125.72 170.614 125.509 170.297 125.509 169.664C125.509 169.032 125.72 168.715 126.141 168.715C130.149 168.715 132.997 168.346 134.685 167.608C136.478 166.869 137.374 165.551 137.374 163.652C137.374 162.07 136.741 159.855 135.476 157.008L100.354 82.808L104.309 77.9036L73.6163 150.521C72.1397 154.107 71.4014 157.06 71.4014 159.381C71.4014 165.604 76.5695 168.715 86.9058 168.715C87.4332 168.715 87.6969 169.032 87.6969 169.664C87.6969 170.297 87.4332 170.614 86.9058 170.614C85.0073 170.614 82.265 170.508 78.679 170.297C74.671 170.086 71.1905 169.981 68.2372 169.981C65.495 169.981 62.3308 170.086 58.7447 170.297C55.5806 170.508 52.9438 170.614 50.8343 170.614C50.307 170.614 50.0433 170.297 50.0433 169.664C50.0433 169.032 50.307 168.715 50.8343 168.715C53.7875 168.715 56.2661 168.188 58.2701 167.133C60.3796 165.973 62.3308 164.022 64.1238 161.279C66.0223 158.432 68.079 154.371 70.2939 149.097L103.676 70.3096C103.887 69.9931 104.256 69.8349 104.783 69.8349C105.311 69.8349 105.627 69.9931 105.733 70.3096L143.07 148.939C146.656 156.744 149.715 162.018 152.246 164.76C154.777 167.397 157.783 168.715 161.264 168.715ZM225.564 69.9931C230.627 69.9931 235.742 70.4678 240.911 71.417C246.079 72.3663 250.192 73.7374 253.251 75.5304C254.2 75.9523 254.78 76.427 254.991 76.9543C255.307 77.3762 255.518 78.1672 255.624 79.3274L257.364 97.0468C257.364 97.3632 257.1 97.5741 256.573 97.6796C256.046 97.6796 255.729 97.5214 255.624 97.205C253.303 89.0836 248.979 83.1244 242.651 79.3274C236.428 75.425 228.676 73.4737 219.394 73.4737C211.378 73.4737 204.364 75.2668 198.352 78.8528C192.341 82.3334 187.7 87.2906 184.43 93.7244C181.16 100.158 179.526 107.594 179.526 116.032C179.526 125.841 181.53 134.911 185.538 143.244C189.651 151.576 195.136 158.168 201.991 163.02C208.952 167.871 216.441 170.297 224.457 170.297C232.051 170.297 238.643 168.241 244.233 164.127C249.823 159.908 254.095 153.474 257.048 144.826C257.048 144.509 257.259 144.351 257.681 144.351C257.997 144.351 258.261 144.404 258.472 144.509C258.788 144.615 258.946 144.773 258.946 144.984L256.731 162.861C256.52 164.127 256.257 164.971 255.94 165.393C255.729 165.709 255.149 166.078 254.2 166.5C244.708 170.508 234.688 172.512 224.14 172.512C211.484 172.512 200.884 169.981 192.341 164.918C183.903 159.75 177.68 153.211 173.672 145.3C169.664 137.39 167.66 129.058 167.66 120.303C167.66 110.6 170.35 101.898 175.729 94.199C181.108 86.4995 188.227 80.5404 197.087 76.3215C205.946 72.1026 215.439 69.9931 225.564 69.9931ZM284.884 84.5483C284.884 81.3841 284.567 79.0638 283.934 77.5872C283.302 76.1105 282.036 75.1085 280.137 74.5812C278.344 73.9484 275.444 73.6319 271.436 73.6319C271.225 73.6319 271.12 73.3155 271.12 72.6827C271.12 72.0499 271.225 71.7334 271.436 71.7334L279.346 71.8916C283.776 72.1026 287.31 72.2081 289.946 72.2081C293.005 72.2081 296.749 72.1026 301.179 71.8916L308.615 71.7334C308.931 71.7334 309.09 72.0499 309.09 72.6827C309.09 73.3155 308.931 73.6319 308.615 73.6319C304.713 73.6319 301.812 73.9484 299.914 74.5812C298.121 75.214 296.855 76.3215 296.117 77.9036C295.484 79.3802 295.167 81.7006 295.167 84.8647V157.799C295.167 161.068 295.484 163.442 296.117 164.918C296.749 166.395 297.962 167.397 299.755 167.924C301.654 168.451 304.607 168.715 308.615 168.715C308.931 168.715 309.09 169.032 309.09 169.664C309.09 170.297 308.931 170.614 308.615 170.614C305.451 170.614 302.919 170.561 301.021 170.455L289.946 170.297L279.188 170.455C277.29 170.561 274.653 170.614 271.278 170.614C271.067 170.614 270.961 170.297 270.961 169.664C270.961 169.032 271.067 168.715 271.278 168.715C275.286 168.715 278.186 168.451 279.979 167.924C281.878 167.397 283.143 166.395 283.776 164.918C284.515 163.336 284.884 160.963 284.884 157.799V84.5483ZM299.439 116.032L307.349 109.703L330.448 139.13C338.147 149.15 344.001 156.217 348.009 160.33C352.122 164.444 355.286 166.869 357.501 167.608C359.716 168.346 362.933 168.715 367.152 168.715C367.469 168.715 367.627 169.032 367.627 169.664C367.627 170.297 367.469 170.614 367.152 170.614H349.433C348.589 170.614 347.06 170.614 344.845 170.614C342.735 170.719 339.729 168.082 335.827 162.703C331.924 157.219 328.18 152.209 324.594 147.673L299.439 116.032ZM329.024 84.5483C332.504 81.0677 334.245 78.4837 334.245 76.7961C334.245 74.6867 331.133 73.6319 324.91 73.6319C324.7 73.6319 324.594 73.3155 324.594 72.6827C324.594 72.0499 324.7 71.7334 324.91 71.7334L331.713 71.8916C335.932 72.1026 339.782 72.2081 343.263 72.2081C346.743 72.2081 350.382 72.1026 354.179 71.8916L360.033 71.7334C360.349 71.7334 360.507 72.0499 360.507 72.6827C360.507 73.3155 360.349 73.6319 360.033 73.6319C355.708 73.6319 351.12 74.5812 346.269 76.4797C341.417 78.3782 336.882 81.3841 332.663 85.4976L292.161 125.208H288.206L329.024 84.5483ZM400.121 157.799C400.121 161.068 400.438 163.442 401.07 164.918C401.703 166.395 402.916 167.397 404.709 167.924C406.608 168.451 409.561 168.715 413.569 168.715C413.885 168.715 414.044 169.032 414.044 169.664C414.044 170.297 413.885 170.614 413.569 170.614C410.405 170.614 407.873 170.561 405.975 170.455L394.742 170.297L383.826 170.455C381.927 170.561 379.343 170.614 376.074 170.614C375.757 170.614 375.599 170.297 375.599 169.664C375.599 169.032 375.757 168.715 376.074 168.715C380.081 168.715 382.982 168.451 384.775 167.924C386.674 167.397 387.939 166.395 388.572 164.918C389.31 163.336 389.679 160.963 389.679 157.799V84.5483C389.679 81.3841 389.31 79.0638 388.572 77.5872C387.939 76.1105 386.674 75.1085 384.775 74.5812C382.982 73.9484 380.081 73.6319 376.074 73.6319C375.757 73.6319 375.599 73.3155 375.599 72.6827C375.599 72.0499 375.757 71.7334 376.074 71.7334L383.826 71.8916C388.256 72.1026 391.894 72.2081 394.742 72.2081C397.906 72.2081 401.703 72.1026 406.133 71.8916L413.569 71.7334C413.885 71.7334 414.044 72.0499 414.044 72.6827C414.044 73.3155 413.885 73.6319 413.569 73.6319C409.666 73.6319 406.766 73.9484 404.867 74.5812C402.969 75.214 401.703 76.3215 401.07 77.9036C400.438 79.3802 400.121 81.7006 400.121 84.8647V157.799ZM488.624 157.166C488.624 160.541 489.046 163.02 489.89 164.602C490.839 166.078 492.579 167.133 495.11 167.766C497.747 168.399 501.861 168.715 507.451 168.715C507.767 168.715 507.925 169.032 507.925 169.664C507.925 170.297 507.767 170.614 507.451 170.614C503.126 170.614 499.751 170.561 497.325 170.455L483.561 170.297L472.961 170.455C470.957 170.561 468.268 170.614 464.893 170.614C464.682 170.614 464.576 170.297 464.576 169.664C464.576 169.032 464.682 168.715 464.893 168.715C468.901 168.715 471.801 168.451 473.594 167.924C475.493 167.397 476.758 166.395 477.391 164.918C478.024 163.336 478.34 160.963 478.34 157.799V84.5483C478.34 81.3841 478.024 79.0638 477.391 77.5872C476.758 76.1105 475.493 75.1085 473.594 74.5812C471.801 73.9484 468.901 73.6319 464.893 73.6319C464.682 73.6319 464.576 73.3155 464.576 72.6827C464.576 72.0499 464.682 71.7334 464.893 71.7334L472.803 71.8916C477.233 72.1026 480.766 72.2081 483.403 72.2081C486.04 72.2081 488.993 72.0499 492.263 71.7334C493.528 71.7334 495.532 71.6807 498.275 71.5752C501.017 71.3643 503.39 71.2588 505.394 71.2588C515.097 71.2588 522.85 73.421 528.651 77.7454C534.557 82.0697 537.51 88.6617 537.51 97.5214C537.51 104.483 535.77 110.336 532.289 115.083C528.914 119.829 524.537 123.362 519.158 125.682C513.779 128.003 508.242 129.163 502.546 129.163C499.488 129.163 496.956 128.899 494.952 128.372C494.636 128.372 494.478 128.108 494.478 127.581C494.478 127.265 494.53 126.948 494.636 126.632C494.847 126.315 495.058 126.21 495.269 126.315C496.956 126.737 498.855 126.948 500.964 126.948C507.925 126.948 513.779 124.68 518.525 120.145C523.377 115.61 525.803 109.071 525.803 100.527C525.803 92.1951 523.535 85.6558 519 80.9095C514.465 76.0578 508.664 73.6319 501.597 73.6319C497.8 73.6319 495.058 73.8429 493.37 74.2648C491.683 74.6867 490.47 75.6886 489.731 77.2707C488.993 78.7473 488.624 81.2787 488.624 84.8647V157.166ZM634.487 84.8647C634.487 81.7006 634.118 79.3802 633.38 77.9036C632.747 76.3215 631.481 75.214 629.583 74.5812C627.684 73.9484 624.678 73.6319 620.565 73.6319C620.248 73.6319 620.09 73.3155 620.09 72.6827C620.09 72.0499 620.248 71.7334 620.565 71.7334L628.159 71.8916C632.8 72.1026 636.649 72.2081 639.708 72.2081C642.556 72.2081 646.195 72.1026 650.624 71.8916L658.377 71.7334C658.693 71.7334 658.851 72.0499 658.851 72.6827C658.851 73.3155 658.693 73.6319 658.377 73.6319C654.369 73.6319 651.415 73.9484 649.517 74.5812C647.618 75.1085 646.3 76.1105 645.562 77.5872C644.929 79.0638 644.612 81.3841 644.612 84.5483V157.799C644.612 160.963 644.929 163.336 645.562 164.918C646.3 166.395 647.618 167.397 649.517 167.924C651.415 168.451 654.369 168.715 658.377 168.715C658.693 168.715 658.851 169.032 658.851 169.664C658.851 170.297 658.693 170.614 658.377 170.614C655.107 170.614 652.523 170.561 650.624 170.455L639.708 170.297L628.159 170.455C626.26 170.561 623.729 170.614 620.565 170.614C620.248 170.614 620.09 170.297 620.09 169.664C620.09 169.032 620.248 168.715 620.565 168.715C624.678 168.715 627.684 168.451 629.583 167.924C631.481 167.397 632.747 166.395 633.38 164.918C634.118 163.336 634.487 160.963 634.487 157.799V84.8647ZM568.198 117.456H638.917V120.778H568.198V117.456ZM563.61 84.5483C563.61 81.3841 563.241 79.0638 562.502 77.5872C561.869 76.1105 560.604 75.1085 558.705 74.5812C556.807 73.9484 553.854 73.6319 549.846 73.6319C549.635 73.6319 549.529 73.3155 549.529 72.6827C549.529 72.0499 549.635 71.7334 549.846 71.7334L557.914 71.8916C562.344 72.1026 565.877 72.2081 568.514 72.2081C571.573 72.2081 575.423 72.1026 580.063 71.8916L587.657 71.7334C587.868 71.7334 587.974 72.0499 587.974 72.6827C587.974 73.3155 587.868 73.6319 587.657 73.6319C583.649 73.6319 580.644 73.9484 578.64 74.5812C576.741 75.214 575.423 76.3215 574.684 77.9036C574.052 79.3802 573.735 81.7006 573.735 84.8647V157.799C573.735 160.963 574.052 163.336 574.684 164.918C575.423 166.395 576.741 167.397 578.64 167.924C580.538 168.451 583.544 168.715 587.657 168.715C587.868 168.715 587.974 169.032 587.974 169.664C587.974 170.297 587.868 170.614 587.657 170.614C584.388 170.614 581.804 170.561 579.905 170.455L568.514 170.297L557.598 170.455C555.699 170.561 553.063 170.614 549.687 170.614C549.476 170.614 549.371 170.297 549.371 169.664C549.371 169.032 549.476 168.715 549.687 168.715C553.695 168.715 556.649 168.451 558.547 167.924C560.551 167.397 561.869 166.395 562.502 164.918C563.241 163.336 563.61 160.963 563.61 157.799V84.5483ZM671 170.614C670.789 170.614 670.683 170.297 670.683 169.664C670.683 169.032 670.789 168.715 671 168.715C675.008 168.715 677.908 168.451 679.701 167.924C681.6 167.397 682.865 166.395 683.498 164.918C684.237 163.336 684.606 160.963 684.606 157.799V84.5483C684.606 81.3841 684.237 79.0638 683.498 77.5872C682.865 76.1105 681.6 75.1085 679.701 74.5812C677.908 73.9484 675.008 73.6319 671 73.6319C670.789 73.6319 670.683 73.3155 670.683 72.6827C670.683 72.0499 670.789 71.7334 671 71.7334H734.6C735.549 71.7334 736.023 72.2081 736.023 73.1573L736.34 92.6169C736.34 92.9334 736.023 93.1443 735.391 93.2498C734.863 93.2498 734.6 93.0916 734.6 92.7751C734.283 87.1851 732.596 82.8608 729.537 79.8021C726.478 76.6379 722.418 75.0558 717.355 75.0558H707.704C704.013 75.0558 701.27 75.3722 699.477 76.0051C697.684 76.5324 696.419 77.4817 695.68 78.8528C695.048 80.224 694.731 82.3861 694.731 85.3394V157.166C694.731 160.014 695.048 162.176 695.68 163.652C696.419 165.024 697.632 165.973 699.319 166.5C701.007 167.028 703.644 167.291 707.23 167.291H719.886C724.949 167.291 729.168 165.498 732.543 161.912C735.918 158.326 738.186 153.369 739.346 147.041C739.346 146.83 739.557 146.724 739.979 146.724C740.295 146.724 740.559 146.83 740.77 147.041C741.086 147.146 741.244 147.252 741.244 147.357C740.295 154.002 739.82 160.963 739.82 168.241C739.82 169.084 739.61 169.717 739.188 170.139C738.871 170.455 738.238 170.614 737.289 170.614H671ZM728.429 133.751C728.429 129.11 727.269 125.788 724.949 123.784C722.734 121.78 718.99 120.778 713.716 120.778H689.985V117.456H714.191C719.253 117.456 722.839 116.612 724.949 114.924C727.164 113.237 728.271 110.389 728.271 106.381C728.271 106.17 728.588 106.065 729.221 106.065C729.853 106.065 730.17 106.17 730.17 106.381L730.012 119.196C730.012 122.255 730.064 124.575 730.17 126.157L730.328 133.751C730.328 133.962 730.012 134.068 729.379 134.068C728.746 134.068 728.429 133.962 728.429 133.751ZM778.441 157.166C778.441 160.225 778.757 162.44 779.39 163.811C780.023 165.182 781.183 166.131 782.87 166.658C784.558 167.08 787.3 167.291 791.097 167.291H808.342C814.354 167.291 819.153 165.446 822.739 161.754C826.325 158.062 828.698 152.947 829.858 146.408C829.858 146.091 830.122 145.986 830.649 146.091C831.282 146.091 831.599 146.25 831.599 146.566C830.649 155.32 830.175 162.545 830.175 168.241C830.175 169.084 830.017 169.717 829.7 170.139C829.384 170.455 828.751 170.614 827.802 170.614H754.709C754.498 170.614 754.393 170.297 754.393 169.664C754.393 169.032 754.498 168.715 754.709 168.715C758.717 168.715 761.618 168.451 763.411 167.924C765.309 167.397 766.575 166.395 767.208 164.918C767.841 163.336 768.157 160.963 768.157 157.799V84.5483C768.157 81.3841 767.841 79.0638 767.208 77.5872C766.575 76.1105 765.309 75.1085 763.411 74.5812C761.618 73.9484 758.717 73.6319 754.709 73.6319C754.498 73.6319 754.393 73.3155 754.393 72.6827C754.393 72.0499 754.498 71.7334 754.709 71.7334L762.462 71.8916C766.891 72.1026 770.477 72.2081 773.22 72.2081C776.173 72.2081 779.864 72.1026 784.294 71.8916L791.888 71.7334C792.205 71.7334 792.363 72.0499 792.363 72.6827C792.363 73.3155 792.205 73.6319 791.888 73.6319C787.986 73.6319 785.085 73.9484 783.187 74.5812C781.288 75.1085 780.023 76.1633 779.39 77.7454C778.757 79.222 778.441 81.5424 778.441 84.7065V157.166ZM863.905 157.166C863.905 160.541 864.327 163.02 865.171 164.602C866.12 166.078 867.86 167.133 870.392 167.766C873.029 168.399 877.142 168.715 882.732 168.715C883.048 168.715 883.207 169.032 883.207 169.664C883.207 170.297 883.048 170.614 882.732 170.614C878.408 170.614 875.033 170.561 872.607 170.455L858.843 170.297L848.243 170.455C846.239 170.561 843.549 170.614 840.174 170.614C839.963 170.614 839.858 170.297 839.858 169.664C839.858 169.032 839.963 168.715 840.174 168.715C844.182 168.715 847.082 168.451 848.875 167.924C850.774 167.397 852.04 166.395 852.672 164.918C853.305 163.336 853.622 160.963 853.622 157.799V84.5483C853.622 81.3841 853.305 79.0638 852.672 77.5872C852.04 76.1105 850.774 75.1085 848.875 74.5812C847.082 73.9484 844.182 73.6319 840.174 73.6319C839.963 73.6319 839.858 73.3155 839.858 72.6827C839.858 72.0499 839.963 71.7334 840.174 71.7334L848.084 71.8916C852.514 72.1026 856.048 72.2081 858.684 72.2081C861.321 72.2081 864.274 72.0499 867.544 71.7334C868.81 71.7334 870.814 71.6807 873.556 71.5752C876.298 71.3643 878.671 71.2588 880.675 71.2588C890.379 71.2588 898.131 73.421 903.932 77.7454C909.838 82.0697 912.792 88.6617 912.792 97.5214C912.792 104.483 911.051 110.336 907.571 115.083C904.196 119.829 899.819 123.362 894.439 125.682C889.06 128.003 883.523 129.163 877.828 129.163C874.769 129.163 872.238 128.899 870.234 128.372C869.917 128.372 869.759 128.108 869.759 127.581C869.759 127.265 869.812 126.948 869.917 126.632C870.128 126.315 870.339 126.21 870.55 126.315C872.238 126.737 874.136 126.948 876.245 126.948C883.207 126.948 889.06 124.68 893.807 120.145C898.658 115.61 901.084 109.071 901.084 100.527C901.084 92.1951 898.817 85.6558 894.281 80.9095C889.746 76.0578 883.945 73.6319 876.878 73.6319C873.081 73.6319 870.339 73.8429 868.651 74.2648C866.964 74.6867 865.751 75.6886 865.013 77.2707C864.274 78.7473 863.905 81.2787 863.905 84.8647V157.166ZM942.372 90.2438C942.372 94.3572 943.374 97.9433 945.378 101.002C947.382 104.061 949.807 106.645 952.655 108.754C955.503 110.758 959.511 113.342 964.679 116.506C970.164 119.776 974.435 122.518 977.494 124.733C980.553 126.948 983.137 129.796 985.246 133.276C987.461 136.652 988.568 140.712 988.568 145.459C988.568 150.521 987.303 155.109 984.771 159.223C982.24 163.336 978.496 166.606 973.539 169.032C968.687 171.352 962.833 172.512 955.978 172.512C947.856 172.512 940.42 170.666 933.67 166.975C933.143 166.658 932.774 166.289 932.563 165.867C932.457 165.446 932.352 164.813 932.246 163.969L930.19 142.453C930.084 142.031 930.295 141.767 930.822 141.662C931.455 141.556 931.824 141.714 931.93 142.136C933.512 149.625 936.623 156.164 941.264 161.754C945.905 167.239 952.022 169.981 959.616 169.981C964.89 169.981 969.32 168.557 972.906 165.709C976.597 162.756 978.443 158.115 978.443 151.787C978.443 147.041 977.388 142.927 975.279 139.447C973.169 135.966 970.585 133.118 967.527 130.903C964.574 128.583 960.513 125.893 955.345 122.835C950.282 119.776 946.274 117.139 943.321 114.924C940.473 112.709 938.047 109.914 936.043 106.539C934.039 103.164 933.037 99.209 933.037 94.6736C933.037 89.4 934.408 84.9175 937.151 81.2259C939.998 77.4289 943.637 74.6339 948.067 72.8409C952.602 70.9424 957.401 69.9931 962.464 69.9931C968.687 69.9931 974.857 71.2588 980.974 73.7901C982.557 74.3175 983.348 75.214 983.348 76.4797L984.455 94.5154C984.455 95.0428 984.139 95.3065 983.506 95.3065C982.978 95.3065 982.662 95.0955 982.557 94.6736C981.818 89.1891 979.603 84.1264 975.912 79.4856C972.22 74.7394 966.894 72.3663 959.933 72.3663C954.026 72.3663 949.596 74.1066 946.643 77.5872C943.795 80.9623 942.372 85.1811 942.372 90.2438Z" fill="white"/>
<path d="M420.297 238.758H427.681V290.857H458.449V297.42H420.297V238.758ZM499.694 282.734H473.849L468.68 297.42H461.05L482.71 238.758H490.915L512.493 297.42H504.863L499.694 282.734ZM476.311 276.171H497.314L486.895 245.568H486.73L476.311 276.171ZM510.013 238.758H517.807L528.965 286.837H529.129L542.257 238.758H550.461L563.588 286.837H563.753L574.911 238.758H582.705L568.183 297.42H559.978L546.441 247.127H546.277L532.739 297.42H524.535L510.013 238.758Z" fill="white"/>
<rect x="258.443" width="479.966" height="16.4091" fill="#39648C"/>
<rect x="258.443" y="344.591" width="479.966" height="16.4091" fill="#39648C"/>
</svg>
